<svg width="38" height="38" viewBox="0 0 38 38" fill="none" xmlns="http://www.w3.org/2000/svg">
<path d="M20.5835 24.9265L26.8376 18.6723C26.9837 18.5211 27.1584 18.4004 27.3516 18.3175C27.5448 18.2345 27.7525 18.1908 27.9628 18.189C28.173 18.1871 28.3815 18.2272 28.5761 18.3068C28.7706 18.3864 28.9474 18.504 29.0961 18.6527C29.2448 18.8013 29.3623 18.9781 29.4419 19.1727C29.5215 19.3673 29.5616 19.5758 29.5598 19.786C29.558 19.9962 29.5143 20.204 29.4313 20.3972C29.3483 20.5903 29.2277 20.7651 29.0765 20.9111L20.1196 29.868C19.9729 30.0156 19.7984 30.1327 19.6063 30.2126C19.4142 30.2925 19.2082 30.3336 19.0001 30.3336C18.7921 30.3336 18.5861 30.2925 18.394 30.2126C18.2018 30.1327 18.0274 30.0156 17.8807 29.868L8.9238 20.9111C8.77258 20.7651 8.65196 20.5903 8.56898 20.3972C8.48599 20.204 8.44232 19.9962 8.44049 19.786C8.43866 19.5758 8.47872 19.3673 8.55834 19.1727C8.63795 18.9781 8.75551 18.8013 8.90418 18.6527C9.05284 18.504 9.22962 18.3864 9.42421 18.3068C9.61879 18.2272 9.82729 18.1871 10.0375 18.189C10.2478 18.1908 10.4555 18.2345 10.6487 18.3175C10.8419 18.4004 11.0166 18.5211 11.1626 18.6723L17.4168 24.9265V9.74862C17.4168 9.32869 17.5836 8.92596 17.8806 8.62903C18.1775 8.3321 18.5802 8.16528 19.0001 8.16528C19.4201 8.16528 19.8228 8.3321 20.1197 8.62903C20.4167 8.92596 20.5835 9.32869 20.5835 9.74862V24.9265Z" fill="#19882C"/>
</svg>
