<svg width="38" height="38" viewBox="0 0 38 38" fill="none" xmlns="http://www.w3.org/2000/svg">
<path d="M17.4165 13.0735L11.1624 19.3277C11.0163 19.4789 10.8416 19.5996 10.6484 19.6825C10.4552 19.7655 10.2475 19.8092 10.0372 19.811C9.82701 19.8129 9.61852 19.7728 9.42394 19.6932C9.22935 19.6136 9.05257 19.496 8.9039 19.3473C8.75524 19.1987 8.63767 19.0219 8.55806 18.8273C8.47845 18.6327 8.43839 18.4242 8.44022 18.214C8.44204 18.0038 8.48572 17.796 8.5687 17.6028C8.65168 17.4097 8.7723 17.2349 8.92353 17.0889L17.8804 8.13197C18.0271 7.98442 18.2016 7.86734 18.3937 7.78744C18.5858 7.70754 18.7918 7.66641 18.9999 7.66641C19.2079 7.66641 19.4139 7.70754 19.606 7.78744C19.7982 7.86734 19.9726 7.98442 20.1193 8.13197L29.0762 17.0889C29.2274 17.2349 29.348 17.4097 29.431 17.6028C29.514 17.796 29.5577 18.0038 29.5595 18.214C29.5613 18.4242 29.5213 18.6327 29.4417 18.8273C29.3621 19.0219 29.2445 19.1987 29.0958 19.3473C28.9472 19.496 28.7704 19.6136 28.5758 19.6932C28.3812 19.7728 28.1727 19.8129 27.9625 19.811C27.7522 19.8092 27.5445 19.7655 27.3513 19.6825C27.1581 19.5996 26.9834 19.4789 26.8374 19.3277L20.5832 13.0735V28.2514C20.5832 28.6713 20.4164 29.074 20.1194 29.371C19.8225 29.6679 19.4198 29.8347 18.9999 29.8347C18.5799 29.8347 18.1772 29.6679 17.8803 29.371C17.5833 29.074 17.4165 28.6713 17.4165 28.2514V13.0735Z" fill="#19882C"/>
</svg>
