<svg width="141" height="50" viewBox="0 0 141 50" fill="none" xmlns="http://www.w3.org/2000/svg">
<g clip-path="url(#clip0_167_494)">
<rect width="141" height="50" rx="10" fill="white"/>
<rect x="0.5" y="0.5" width="140" height="49" rx="9.5" fill="#EFA300" stroke="#EFA300"/>
<path d="M66.2969 17.4492L60.6484 33H58.3398L64.8438 15.9375H66.332L66.2969 17.4492ZM71.0312 33L65.3711 17.4492L65.3359 15.9375H66.8242L73.3516 33H71.0312ZM70.7383 26.6836V28.5352H61.1523V26.6836H70.7383ZM77.6641 15V33H75.4844V15H77.6641ZM86.4531 20.3203V21.9844H79.5977V20.3203H86.4531ZM81.918 17.2383H84.0859V29.8594C84.0859 30.2891 84.1523 30.6133 84.2852 30.832C84.418 31.0508 84.5898 31.1953 84.8008 31.2656C85.0117 31.3359 85.2383 31.3711 85.4805 31.3711C85.6602 31.3711 85.8477 31.3555 86.043 31.3242C86.2461 31.2852 86.3984 31.2539 86.5 31.2305L86.5117 33C86.3398 33.0547 86.1133 33.1055 85.832 33.1523C85.5586 33.207 85.2266 33.2344 84.8359 33.2344C84.3047 33.2344 83.8164 33.1289 83.3711 32.918C82.9258 32.707 82.5703 32.3555 82.3047 31.8633C82.0469 31.3633 81.918 30.6914 81.918 29.8477V17.2383ZM94.2578 33.2344C93.375 33.2344 92.5742 33.0859 91.8555 32.7891C91.1445 32.4844 90.5312 32.0586 90.0156 31.5117C89.5078 30.9648 89.1172 30.3164 88.8438 29.5664C88.5703 28.8164 88.4336 27.9961 88.4336 27.1055V26.6133C88.4336 25.582 88.5859 24.6641 88.8906 23.8594C89.1953 23.0469 89.6094 22.3594 90.1328 21.7969C90.6562 21.2344 91.25 20.8086 91.9141 20.5195C92.5781 20.2305 93.2656 20.0859 93.9766 20.0859C94.8828 20.0859 95.6641 20.2422 96.3203 20.5547C96.9844 20.8672 97.5273 21.3047 97.9492 21.8672C98.3711 22.4219 98.6836 23.0781 98.8867 23.8359C99.0898 24.5859 99.1914 25.4062 99.1914 26.2969V27.2695H89.7227V25.5H97.0234V25.3359C96.9922 24.7734 96.875 24.2266 96.6719 23.6953C96.4766 23.1641 96.1641 22.7266 95.7344 22.3828C95.3047 22.0391 94.7188 21.8672 93.9766 21.8672C93.4844 21.8672 93.0312 21.9727 92.6172 22.1836C92.2031 22.3867 91.8477 22.6914 91.5508 23.0977C91.2539 23.5039 91.0234 24 90.8594 24.5859C90.6953 25.1719 90.6133 25.8477 90.6133 26.6133V27.1055C90.6133 27.707 90.6953 28.2734 90.8594 28.8047C91.0312 29.3281 91.2773 29.7891 91.5977 30.1875C91.9258 30.5859 92.3203 30.8984 92.7812 31.125C93.25 31.3516 93.7812 31.4648 94.375 31.4648C95.1406 31.4648 95.7891 31.3086 96.3203 30.9961C96.8516 30.6836 97.3164 30.2656 97.7148 29.7422L99.0273 30.7852C98.7539 31.1992 98.4062 31.5938 97.9844 31.9688C97.5625 32.3438 97.043 32.6484 96.4258 32.8828C95.8164 33.1172 95.0938 33.2344 94.2578 33.2344ZM103.891 22.3125V33H101.723V20.3203H103.832L103.891 22.3125ZM107.852 20.25L107.84 22.2656C107.66 22.2266 107.488 22.2031 107.324 22.1953C107.168 22.1797 106.988 22.1719 106.785 22.1719C106.285 22.1719 105.844 22.25 105.461 22.4062C105.078 22.5625 104.754 22.7812 104.488 23.0625C104.223 23.3438 104.012 23.6797 103.855 24.0703C103.707 24.4531 103.609 24.875 103.562 25.3359L102.953 25.6875C102.953 24.9219 103.027 24.2031 103.176 23.5312C103.332 22.8594 103.57 22.2656 103.891 21.75C104.211 21.2266 104.617 20.8203 105.109 20.5312C105.609 20.2344 106.203 20.0859 106.891 20.0859C107.047 20.0859 107.227 20.1055 107.43 20.1445C107.633 20.1758 107.773 20.2109 107.852 20.25ZM116.863 30.832V24.3047C116.863 23.8047 116.762 23.3711 116.559 23.0039C116.363 22.6289 116.066 22.3398 115.668 22.1367C115.27 21.9336 114.777 21.832 114.191 21.832C113.645 21.832 113.164 21.9258 112.75 22.1133C112.344 22.3008 112.023 22.5469 111.789 22.8516C111.562 23.1562 111.449 23.4844 111.449 23.8359H109.281C109.281 23.3828 109.398 22.9336 109.633 22.4883C109.867 22.043 110.203 21.6406 110.641 21.2812C111.086 20.9141 111.617 20.625 112.234 20.4141C112.859 20.1953 113.555 20.0859 114.32 20.0859C115.242 20.0859 116.055 20.2422 116.758 20.5547C117.469 20.8672 118.023 21.3398 118.422 21.9727C118.828 22.5977 119.031 23.3828 119.031 24.3281V30.2344C119.031 30.6562 119.066 31.1055 119.137 31.582C119.215 32.0586 119.328 32.4688 119.477 32.8125V33H117.215C117.105 32.75 117.02 32.418 116.957 32.0039C116.895 31.582 116.863 31.1914 116.863 30.832ZM117.238 25.3125L117.262 26.8359H115.07C114.453 26.8359 113.902 26.8867 113.418 26.9883C112.934 27.082 112.527 27.2266 112.199 27.4219C111.871 27.6172 111.621 27.8633 111.449 28.1602C111.277 28.4492 111.191 28.7891 111.191 29.1797C111.191 29.5781 111.281 29.9414 111.461 30.2695C111.641 30.5977 111.91 30.8594 112.27 31.0547C112.637 31.2422 113.086 31.3359 113.617 31.3359C114.281 31.3359 114.867 31.1953 115.375 30.9141C115.883 30.6328 116.285 30.2891 116.582 29.8828C116.887 29.4766 117.051 29.082 117.074 28.6992L118 29.7422C117.945 30.0703 117.797 30.4336 117.555 30.832C117.312 31.2305 116.988 31.6133 116.582 31.9805C116.184 32.3398 115.707 32.6406 115.152 32.8828C114.605 33.1172 113.988 33.2344 113.301 33.2344C112.441 33.2344 111.688 33.0664 111.039 32.7305C110.398 32.3945 109.898 31.9453 109.539 31.3828C109.188 30.8125 109.012 30.1758 109.012 29.4727C109.012 28.793 109.145 28.1953 109.41 27.6797C109.676 27.1562 110.059 26.7227 110.559 26.3789C111.059 26.0273 111.66 25.7617 112.363 25.582C113.066 25.4023 113.852 25.3125 114.719 25.3125H117.238ZM124.609 22.3125V33H122.441V20.3203H124.551L124.609 22.3125ZM128.57 20.25L128.559 22.2656C128.379 22.2266 128.207 22.2031 128.043 22.1953C127.887 22.1797 127.707 22.1719 127.504 22.1719C127.004 22.1719 126.562 22.25 126.18 22.4062C125.797 22.5625 125.473 22.7812 125.207 23.0625C124.941 23.3438 124.73 23.6797 124.574 24.0703C124.426 24.4531 124.328 24.875 124.281 25.3359L123.672 25.6875C123.672 24.9219 123.746 24.2031 123.895 23.5312C124.051 22.8594 124.289 22.2656 124.609 21.75C124.93 21.2266 125.336 20.8203 125.828 20.5312C126.328 20.2344 126.922 20.0859 127.609 20.0859C127.766 20.0859 127.945 20.1055 128.148 20.1445C128.352 20.1758 128.492 20.2109 128.57 20.25Z" fill="white"/>
<path d="M28.72 29.4558L30.481 28.9478L41.084 18.2178C41.1676 18.1321 41.2142 18.017 41.2136 17.8972C41.2131 17.7775 41.1654 17.6628 41.081 17.5778L40.446 16.9358C40.405 16.8937 40.3559 16.8601 40.3018 16.8371C40.2477 16.8141 40.1895 16.8021 40.1306 16.8018C40.0718 16.8015 40.0135 16.813 39.9591 16.8355C39.9048 16.858 39.8554 16.8911 39.814 16.9328L29.239 27.6348L28.719 29.4548L28.72 29.4558ZM41.703 15.6638L42.338 16.3068C43.214 17.1938 43.222 18.6248 42.354 19.5028L31.428 30.5608L27.664 31.6448C27.4342 31.7092 27.1883 31.6797 26.9802 31.5629C26.7721 31.4461 26.6188 31.2515 26.554 31.0218C26.5058 30.8567 26.5051 30.6813 26.552 30.5158L27.647 26.6758L38.544 15.6468C38.7512 15.4382 38.9979 15.2729 39.2696 15.1606C39.5414 15.0483 39.8328 14.9912 40.1269 14.9927C40.4209 14.9942 40.7117 15.0542 40.9823 15.1693C41.2529 15.2843 41.4979 15.4531 41.703 15.6638ZM30.184 16.8168C30.68 16.8168 31.082 17.2238 31.082 17.7258C31.0828 17.8445 31.0602 17.9622 31.0155 18.0721C30.9708 18.182 30.9048 18.2821 30.8214 18.3665C30.738 18.4509 30.6388 18.5181 30.5294 18.5641C30.42 18.6102 30.3027 18.6342 30.184 18.6348H26.592C25.6 18.6348 24.796 19.4488 24.796 20.4518V31.3578C24.796 32.3618 25.6 33.1758 26.592 33.1758H37.368C38.36 33.1758 39.165 32.3618 39.165 31.3578V27.7228C39.165 27.2208 39.567 26.8138 40.063 26.8138C40.559 26.8138 40.961 27.2208 40.961 27.7238V31.3578C40.961 33.3658 39.352 34.9938 37.368 34.9938H26.592C24.608 34.9938 23 33.3658 23 31.3578V20.4518C23 18.4448 24.608 16.8168 26.592 16.8168H30.184Z" fill="white"/>
</g>
<defs>
<clipPath id="clip0_167_494">
<rect width="141" height="50" rx="10" fill="white"/>
</clipPath>
</defs>
</svg>
