<svg width="44" height="44" viewBox="0 0 44 44" fill="none" xmlns="http://www.w3.org/2000/svg">
<path d="M24.4092 21.8166L30.89 15.3339C31.0651 15.1648 31.2048 14.9625 31.3008 14.7388C31.3969 14.5151 31.4475 14.2746 31.4496 14.0311C31.4517 13.7877 31.4053 13.5463 31.3132 13.321C31.221 13.0957 31.0849 12.891 30.9127 12.7189C30.7406 12.5467 30.5359 12.4106 30.3106 12.3184C30.0853 12.2262 29.8438 12.1798 29.6004 12.182C29.357 12.1841 29.1164 12.2346 28.8927 12.3307C28.6691 12.4268 28.4668 12.5665 28.2977 12.7416L21.815 19.2224L15.3342 12.7416C15.165 12.5665 14.9627 12.4268 14.7391 12.3307C14.5154 12.2346 14.2748 12.1841 14.0314 12.182C13.788 12.1798 13.5466 12.2262 13.3212 12.3184C13.0959 12.4106 12.8912 12.5467 12.7191 12.7189C12.547 12.891 12.4108 13.0957 12.3187 13.321C12.2265 13.5463 12.1801 13.7877 12.1822 14.0311C12.1843 14.2746 12.2349 14.5151 12.331 14.7388C12.4271 14.9625 12.5667 15.1648 12.7418 15.3339L19.2227 21.8147L12.7418 28.2974C12.5667 28.4665 12.4271 28.6688 12.331 28.8925C12.2349 29.1162 12.1843 29.3567 12.1822 29.6002C12.1801 29.8436 12.2265 30.085 12.3187 30.3103C12.4108 30.5356 12.547 30.7403 12.7191 30.9125C12.8912 31.0846 13.0959 31.2207 13.3212 31.3129C13.5466 31.4051 13.788 31.4515 14.0314 31.4494C14.2748 31.4473 14.5154 31.3967 14.7391 31.3006C14.9627 31.2045 15.165 31.0648 15.3342 30.8897L21.815 24.4089L28.2977 30.8897C28.4668 31.0648 28.6691 31.2045 28.8927 31.3006C29.1164 31.3967 29.357 31.4473 29.6004 31.4494C29.8438 31.4515 30.0853 31.4051 30.3106 31.3129C30.5359 31.2207 30.7406 31.0846 30.9127 30.9125C31.0849 30.7403 31.221 30.5356 31.3132 30.3103C31.4053 30.085 31.4517 29.8436 31.4496 29.6002C31.4475 29.3567 31.3969 29.1162 31.3008 28.8925C31.2048 28.6688 31.0651 28.4665 30.89 28.2974L24.4092 21.8166Z" fill="black"/>
</svg>
