<svg width="20" height="20" viewBox="0 0 20 20" fill="none" xmlns="http://www.w3.org/2000/svg">
<g clip-path="url(#clip0_130_11)">
<path d="M17.3517 15.08C14.4858 14.4183 11.8175 13.8383 13.11 11.3983C17.0425 3.97167 14.1525 0 10 0C5.765 0 2.94583 4.12417 6.89 11.3983C8.22167 13.8525 5.4525 14.4325 2.64833 15.08C0.165833 15.6533 0 16.8658 0 18.9658L0.00416667 20H1.66667C1.66667 17.3883 1.5625 17.0417 3.19833 16.6642C5.57417 16.1167 7.8175 15.5992 8.63583 13.7842C8.935 13.1217 9.12917 12.0317 8.35417 10.605C6.63917 7.43917 6.20583 4.6975 7.16833 3.08333C8.29667 1.1875 11.69 1.19667 12.8075 3.055C13.7658 4.6475 13.34 7.40417 11.6383 10.6183C10.88 12.0508 11.0792 13.1375 11.38 13.7967C12.205 15.6025 14.4692 16.125 16.8667 16.6783C18.4325 17.0417 18.3333 17.4133 18.3333 20H19.9958L20 18.9658C20 16.8658 19.8342 15.6533 17.3517 15.08Z" fill="#46A151"/>
</g>
<defs>
<clipPath id="clip0_130_11">
<rect width="20" height="20" fill="white"/>
</clipPath>
</defs>
</svg>
