<svg width="24" height="24" viewBox="0 0 24 24" fill="none" xmlns="http://www.w3.org/2000/svg">
<path d="M2.39978 5.59999C2.11126 5.59591 1.84291 5.7475 1.69746 5.99669C1.55202 6.24589 1.55202 6.5541 1.69746 6.80329C1.84291 7.05249 2.11126 7.20407 2.39978 7.19999H21.5998C21.8883 7.20407 22.1566 7.05248 22.3021 6.80329C22.4475 6.55409 22.4475 6.24588 22.3021 5.99669C22.1566 5.74749 21.8883 5.59591 21.5998 5.59999H2.39978ZM2.39978 11.2C2.11126 11.1959 1.84291 11.3475 1.69746 11.5967C1.55202 11.8459 1.55202 12.1541 1.69746 12.4033C1.84291 12.6525 2.11126 12.8041 2.39978 12.8H21.5998C21.8883 12.8041 22.1566 12.6525 22.3021 12.4033C22.4475 12.1541 22.4475 11.8459 22.3021 11.5967C22.1566 11.3475 21.8883 11.1959 21.5998 11.2H2.39978ZM2.39978 16.8C2.11126 16.7959 1.84291 16.9475 1.69746 17.1967C1.55202 17.4459 1.55202 17.7541 1.69746 18.0033C1.84291 18.2525 2.11126 18.4041 2.39978 18.4H21.5998C21.8883 18.4041 22.1566 18.2525 22.3021 18.0033C22.4475 17.7541 22.4475 17.4459 22.3021 17.1967C22.1566 16.9475 21.8883 16.7959 21.5998 16.8H2.39978Z" fill="#1F2421"/>
</svg>
