<svg width="32" height="32" viewBox="0 0 32 32" fill="none" xmlns="http://www.w3.org/2000/svg">
<path d="M12 5.33341V4.00008C12 3.64646 12.1405 3.30732 12.3905 3.05727C12.6406 2.80722 12.9797 2.66675 13.3333 2.66675H18.6667C19.0203 2.66675 19.3594 2.80722 19.6095 3.05727C19.8595 3.30732 20 3.64646 20 4.00008V5.33341H25.3333C26.0406 5.33341 26.7189 5.61437 27.219 6.11446C27.719 6.61456 28 7.29284 28 8.00008V9.33341C28 10.0407 27.719 10.7189 27.219 11.219C26.7189 11.7191 26.0406 12.0001 25.3333 12.0001H25.156L24.2493 25.6001C24.1817 26.6125 23.7319 27.5613 22.9909 28.2545C22.25 28.9476 21.2733 29.3333 20.2587 29.3334H11.768C10.7542 29.3334 9.77829 28.9484 9.03748 28.2564C8.29667 27.5644 7.84627 26.6168 7.77733 25.6054L6.84933 12.0001H6.66667C5.95942 12.0001 5.28115 11.7191 4.78105 11.219C4.28095 10.7189 4 10.0407 4 9.33341V8.00008C4 7.29284 4.28095 6.61456 4.78105 6.11446C5.28115 5.61437 5.95942 5.33341 6.66667 5.33341H12ZM25.3333 8.00008H6.66667V9.33341H25.3333V8.00008ZM9.52133 12.0001L10.4373 25.4241C10.4603 25.7613 10.6105 26.0772 10.8575 26.3079C11.1046 26.5386 11.43 26.6669 11.768 26.6667H20.2587C20.5971 26.6668 20.9229 26.5382 21.17 26.3069C21.4171 26.0757 21.567 25.7591 21.5893 25.4214L22.4827 12.0001H9.52267H9.52133ZM13.3333 13.3334C13.687 13.3334 14.0261 13.4739 14.2761 13.7239C14.5262 13.974 14.6667 14.3131 14.6667 14.6667V24.0001C14.6667 24.3537 14.5262 24.6928 14.2761 24.9429C14.0261 25.1929 13.687 25.3334 13.3333 25.3334C12.9797 25.3334 12.6406 25.1929 12.3905 24.9429C12.1405 24.6928 12 24.3537 12 24.0001V14.6667C12 14.3131 12.1405 13.974 12.3905 13.7239C12.6406 13.4739 12.9797 13.3334 13.3333 13.3334ZM18.6667 13.3334C19.0203 13.3334 19.3594 13.4739 19.6095 13.7239C19.8595 13.974 20 14.3131 20 14.6667V24.0001C20 24.3537 19.8595 24.6928 19.6095 24.9429C19.3594 25.1929 19.0203 25.3334 18.6667 25.3334C18.313 25.3334 17.9739 25.1929 17.7239 24.9429C17.4738 24.6928 17.3333 24.3537 17.3333 24.0001V14.6667C17.3333 14.3131 17.4738 13.974 17.7239 13.7239C17.9739 13.4739 18.313 13.3334 18.6667 13.3334Z" fill="#B94A48"/>
</svg>
