<svg width="91" height="90" viewBox="0 0 91 90" fill="none" xmlns="http://www.w3.org/2000/svg">
<path d="M45.5 0C20.6488 0 0.5 20.1488 0.5 45C0.5 69.8512 20.6488 90 45.5 90C70.3512 90 90.5 69.8512 90.5 45C90.5 20.1488 70.3512 0 45.5 0ZM74.5738 68.6438C73.595 66.4463 71.615 64.9275 67.5575 63.99C58.9588 62.0062 50.9525 60.2663 54.8338 52.9463C66.6275 30.6638 57.9575 18.75 45.5 18.75C32.795 18.75 24.335 31.1213 36.1662 52.9463C40.1637 60.3113 31.8612 62.0475 23.4425 63.99C19.3775 64.9275 17.4125 66.4575 16.4412 68.6625C11.1725 62.2012 8 53.9663 8 45C8 24.3225 24.8225 7.5 45.5 7.5C66.1775 7.5 83 24.3225 83 45C83 53.9587 79.8313 62.1863 74.5738 68.6438Z" fill="white"/>
</svg>
